<svg id="Capa_1" enable-background="new 0 0 497 497" height="512" viewBox="0 0 497 497" width="512" xmlns="http://www.w3.org/2000/svg"><g><g><path d="m325.86 78.381-249.295 294.7 62.223 52.636 140.165-142.082 109.13-152.618z" fill="#5f5ace"/><path d="m101.547 263.935h386v81.5h-386z" fill="#463fc7" transform="matrix(.646 -.764 .764 .646 -128.302 332.785)"/></g><g><path d="m200.268 13.257-150.528 355.44 75.048 31.783 91.646-177.298 58.881-178.142z" fill="#00dc7b"/><path d="m44.575 197.901h386v81.5h-386z" fill="#00cb71" transform="matrix(.39 -.921 .921 .39 -74.828 364.351)"/></g><path d="m46.694 362v135h82.025v-135l-41-16z" fill="#efe2de"/><path d="m210.694 362-39.975-18-42 18v135h81.975z" fill="#e3c9b8"/><path d="m46.694 0h164v362h-164z" fill="#ff6c6c"/><path d="m128.719 0h81.975v362h-81.975z" fill="#ff415b"/><path d="m113.75 414v30h14.969l6-16-6-14z" fill="#ad774e"/><path d="m128.719 414h15.031v30h-15.031z" fill="#956641"/></g></svg>