<?xml version="1.0" encoding="iso-8859-1"?>
<!-- Generator: Adobe Illustrator 19.0.0, SVG Export Plug-In . SVG Version: 6.00 Build 0)  -->
<svg version="1.1" id="Capa_1" xmlns="http://www.w3.org/2000/svg" xmlns:xlink="http://www.w3.org/1999/xlink" x="0px" y="0px"
	 viewBox="0 0 413.421 413.421" style="enable-background:new 0 0 413.421 413.421;" xml:space="preserve">
<g>
	<g>
		<path d="M407.521,7.42c-0.32-4.407-4.152-7.719-8.559-7.399c-2.23,0.162-4.29,1.25-5.681,2.999c0,0-24.48,30.08-60.16,28.08
			c-28-1.52-40,33.68-44.32,52.4c-1.029,0.207-2.008,0.615-2.88,1.2l-44.56,30.96c-3.638,2.508-4.554,7.489-2.046,11.127
			c0.275,0.398,0.585,0.771,0.926,1.113l1.68,1.68c-38.48,33.04-226.96,199.36-236.56,274.8c-0.575,4.381,2.511,8.398,6.892,8.972
			c0.367,0.048,0.738,0.071,1.108,0.068h0.96c75.44-9.6,241.76-198.16,274.96-236.48l1.68,1.68c1.51,1.497,3.554,2.332,5.68,2.32
			h0.72c2.461-0.112,4.734-1.351,6.16-3.36l30.96-44.56c1.095-1.59,1.578-3.522,1.36-5.44c16.328-1.579,31.708-8.398,43.84-19.44
			C401.281,87.66,410.721,53.74,407.521,7.42z M24.081,394.62c25.44-74.72,195.92-225.04,229.12-253.76l24.72,24.72
			C249.121,198.7,98.801,369.1,24.081,394.62z M295.521,160.46l-37.28-37.28l31.2-21.6l27.68,28L295.521,160.46z M368.561,96.14
			c-12.666,11.227-29.263,16.98-46.16,16l-19.36-19.36c3.04-15.6,12.4-46.88,29.04-45.76c21.868,0.688,43.215-6.751,59.92-20.88
			C392.001,58.14,384.001,81.74,368.561,96.14z"/>
	</g>
</g>
<g>
</g>
<g>
</g>
<g>
</g>
<g>
</g>
<g>
</g>
<g>
</g>
<g>
</g>
<g>
</g>
<g>
</g>
<g>
</g>
<g>
</g>
<g>
</g>
<g>
</g>
<g>
</g>
<g>
</g>
</svg>
